# xmcd CD database file
#
# Track frame offsets:
#	150
#	13366
#	24881
#	37867
#	50194
#	61780
#	73551
#	84695
#	96947
#	107142
#	117536
#	128088
#	138153
#	148922
#	158795
#	169330
#	179547
#	192883
#	203402
#	214905
#	231812
#	244858
#	259122
#	270584
#	282685
#
# Disc length: 3930 seconds
#
# Revision: 1
# Processed by: cddbd v1.5.2PL0 Copyright (c) Steve Scherf et al.
# Submitted via: CDex 1.70beta2
#
DISCID=780f5819
DTITLE=Sonny Stitt - Bebop Story Vol 1 1946-50 CD 060
DYEAR=2008
DGENRE=Jazz
TTITLE0=Bepob In Pastel
TTITLE1=Fools Fancy
TTITLE2=Bombay
TTITLE3=Ray's Idea
TTITLE4=Serenade To A Suqare
TTITLE5=Good Kick
TTITLE6=Seven Up
TTITLE7=Blues In Bebop
TTITLE8=Stardust
TTITLE9=Red Shoes
TTITLE10=Body And Soul
TTITLE11=Ratio And Proportion
TTITLE12=Royal Wedding
TTITLE13=Be Bop Blues
TTITLE14=Fine And Dandy
TTITLE15=3rd Song
TTITLE16=All God's Chillun Got Rhythm
TTITLE17=Sonny Side
TTITLE18=Bud's Blues
TTITLE19=Sunset
TTITLE20=Strike Up The Band
TTITLE21=I Want To Be Happy
TTITLE22=Taking A Chance On Love
TTITLE23=Fine And Dandy
TTITLE24=Fine And Dandy
EXTD=YEAR: 2008
EXTT0=
EXTT1=
EXTT2=
EXTT3=
EXTT4=
EXTT5=
EXTT6=
EXTT7=
EXTT8=
EXTT9=
EXTT10=
EXTT11=
EXTT12=
EXTT13=
EXTT14=
EXTT15=
EXTT16=
EXTT17=
EXTT18=
EXTT19=
EXTT20=
EXTT21=
EXTT22=
EXTT23=
EXTT24=
PLAYORDER=
